<svg width="1870" height="1839" xmlns="http://www.w3.org/2000/svg" xmlns:xlink="http://www.w3.org/1999/xlink" xml:space="preserve" overflow="hidden"><defs><clipPath id="clip0"><rect x="468" y="223" width="1870" height="1839"/></clipPath></defs><g clip-path="url(#clip0)" transform="translate(-468 -223)"><path d="M491.489 223 482.323 224.719 474.875 229.877 469.718 237.041 468 246.211 468 1898.79 469.718 1907.96 474.875 1915.12 482.323 1920.28 491.489 1922 2314.8 1922 2323.96 1920.28 2331.12 1915.12 2336.28 1907.96 2338 1898.79 2338 246.211 2336.28 237.041 2331.12 229.877 2323.96 224.719 2314.8 223 491.489 223" fill="#FFFFFF" fill-rule="evenodd"/><path d="M491.489 223 491.489 224.719 2314.8 224.719 2323.1 226.439 2329.98 231.024 2334.56 237.901 2336.28 246.211 2336.28 1898.79 2334.56 1907.1 2329.98 1913.69 2323.1 1918.28 2314.8 1919.99 491.489 1919.99 483.182 1918.28 476.307 1913.69 471.724 1907.1 470.005 1898.79 470.005 246.211 471.724 237.901 476.307 231.024 483.182 226.439 491.489 224.719 491.489 223 482.323 224.719 474.875 229.877 469.718 237.041 468 246.211 468 1898.79 469.718 1907.96 474.875 1915.12 482.323 1920.28 491.489 1922 2314.8 1922 2323.96 1920.28 2331.12 1915.12 2336.28 1907.96 2338 1898.79 2338 246.211 2336.28 237.041 2331.12 229.877 2323.96 224.719 2314.8 223 491.489 223" fill="#DADBDF" fill-rule="evenodd"/><path d="M481.174 541 477.157 541.755 473.436 544.338 470.859 548.069 470 552.662 470 646.232 470.859 650.825 473.436 654.556 477.157 657.139 481.738 658 2288.31 658 2292.9 657.139 2296.62 654.556 2299.19 650.825 2300 646.516 2300 552.378 2299.19 548.069 2296.62 544.338 2292.9 541.755 2288.88 541 481.174 541" fill="#FFFFFF" fill-rule="evenodd"/><path d="M481.455 669 477.157 669.806 473.436 672.386 470.859 676.112 470 680.699 470 1651.25 470.859 1655.83 473.436 1659.56 477.157 1662.14 481.738 1663 2288.31 1663 2292.9 1662.14 2296.62 1659.56 2299.19 1655.83 2300 1651.53 2300 680.415 2299.19 676.112 2296.62 672.386 2292.9 669.806 2288.6 669 481.455 669" fill="#FFFFFF" fill-rule="evenodd"/><path d="M481.738 1674 477.157 1674.86 473.436 1677.44 470.859 1680.88 470 1685.47 470 1779.24 470.859 1783.83 473.436 1787.56 477.157 1790.14 481.738 1791 2288.31 1791 2292.9 1790.14 2296.62 1787.56 2299.19 1783.83 2300 1779.53 2300 1685.19 2299.19 1680.88 2296.62 1677.44 2292.9 1674.86 2288.31 1674 481.738 1674" fill="#FFFFFF" fill-rule="evenodd"/><path d="M480.492 1803 477.157 1803.63 473.436 1806.21 470.859 1809.95 470 1814.55 470 1908.51 470.859 1913.1 473.436 1916.55 477.157 1919.14 481.738 1920 2288.31 1920 2292.9 1919.14 2296.62 1916.55 2299.19 1913.1 2300 1908.79 2300 1814.26 2299.19 1809.95 2296.62 1806.21 2292.9 1803.63 2289.56 1803 480.492 1803" fill="#FFFFFF" fill-rule="evenodd"/><path d="M490.523 1922 482.323 1923.54 474.875 1928.68 469.718 1936.12 468 1945.28 468 2062 2338 2062 2338 1945.28 2336.28 1936.12 2331.12 1928.68 2323.96 1923.54 2315.76 1922 490.523 1922" fill="#FFFFFF" fill-rule="evenodd"/></g></svg>